<svg width="23" height="22" viewBox="0 0 23 22" fill="none" xmlns="http://www.w3.org/2000/svg">
<path d="M10.5137 21.5449C10.11 21.5449 9.75846 21.431 9.45898 21.2031C9.16602 20.9753 8.97396 20.666 8.88281 20.2754L8.48242 18.5469L8.21875 18.459L6.72461 19.377C6.38607 19.5918 6.02799 19.6732 5.65039 19.6211C5.2793 19.5755 4.95052 19.4095 4.66406 19.123L3.29688 17.7656C3.00391 17.4727 2.83464 17.1406 2.78906 16.7695C2.74349 16.3984 2.82812 16.0436 3.04297 15.7051L3.98047 14.2109L3.89258 13.9668L2.16406 13.5664C1.77995 13.4753 1.4707 13.2799 1.23633 12.9805C1.00846 12.681 0.894531 12.3327 0.894531 11.9355V10.0117C0.894531 9.61458 1.00846 9.26953 1.23633 8.97656C1.46419 8.67708 1.77344 8.47852 2.16406 8.38086L3.87305 7.9707L3.9707 7.70703L3.0332 6.21289C2.81836 5.88086 2.73372 5.5293 2.7793 5.1582C2.82487 4.78711 2.99414 4.45508 3.28711 4.16211L4.6543 2.79492C4.94076 2.50846 5.26953 2.34245 5.64062 2.29688C6.01172 2.24479 6.36654 2.32292 6.70508 2.53125L8.20898 3.45898L8.48242 3.35156L8.88281 1.62305C8.97396 1.23893 9.16602 0.932943 9.45898 0.705078C9.75846 0.470703 10.11 0.353516 10.5137 0.353516H12.4961C12.8997 0.353516 13.248 0.470703 13.541 0.705078C13.834 0.932943 14.026 1.23893 14.1172 1.62305L14.5176 3.35156L14.791 3.45898L16.2949 2.53125C16.6335 2.32292 16.9883 2.24479 17.3594 2.29688C17.737 2.34245 18.0658 2.50846 18.3457 2.79492L19.7129 4.16211C19.9993 4.45508 20.1654 4.78711 20.2109 5.1582C20.263 5.5293 20.1816 5.88086 19.9668 6.21289L19.0293 7.70703L19.1367 7.9707L20.8359 8.38086C21.2201 8.47201 21.526 8.66732 21.7539 8.9668C21.9883 9.26628 22.1055 9.61458 22.1055 10.0117V11.9355C22.1055 12.3327 21.9883 12.681 21.7539 12.9805C21.526 13.2734 21.2201 13.4688 20.8359 13.5664L19.1172 13.9668L19.0195 14.2109L19.957 15.7051C20.1719 16.0436 20.2533 16.3984 20.2012 16.7695C20.1556 17.1406 19.9896 17.4727 19.7031 17.7656L18.3359 19.123C18.0495 19.4095 17.7174 19.5755 17.3398 19.6211C16.9688 19.6732 16.6139 19.5918 16.2754 19.377L14.7715 18.459L14.5176 18.5469L14.1172 20.2754C14.026 20.666 13.834 20.9753 13.541 21.2031C13.248 21.431 12.8997 21.5449 12.4961 21.5449H10.5137ZM10.7578 19.7773H12.252C12.4082 19.7773 12.4961 19.7025 12.5156 19.5527L13.1016 17.1504C13.4271 17.0788 13.7298 16.9844 14.0098 16.8672C14.2897 16.7435 14.5501 16.6068 14.791 16.457L16.8906 17.7461C17.0143 17.8307 17.1348 17.8177 17.252 17.707L18.2871 16.6621C18.3913 16.571 18.401 16.4538 18.3164 16.3105L17.0273 14.2207C17.1641 13.9863 17.291 13.7259 17.4082 13.4395C17.5319 13.153 17.6296 12.8568 17.7012 12.5508L20.1133 11.9746C20.263 11.9486 20.3379 11.8574 20.3379 11.7012V10.2363C20.3379 10.0866 20.263 9.99544 20.1133 9.96289L17.7109 9.38672C17.6328 9.0612 17.5286 8.75195 17.3984 8.45898C17.2747 8.16602 17.1543 7.91536 17.0371 7.70703L18.3262 5.60742C18.4173 5.4707 18.4076 5.34701 18.2969 5.23633L17.2617 4.2207C17.151 4.11654 17.0273 4.10026 16.8906 4.17188L14.791 5.45117C14.5501 5.31445 14.2865 5.1875 14 5.07031C13.7201 4.94661 13.4206 4.8457 13.1016 4.76758L12.5156 2.3457C12.4961 2.19596 12.4082 2.12109 12.252 2.12109H10.7578C10.5951 2.12109 10.5007 2.19596 10.4746 2.3457L9.9082 4.74805C9.5957 4.82617 9.28646 4.93034 8.98047 5.06055C8.68099 5.18424 8.42057 5.3112 8.19922 5.44141L6.09961 4.17188C5.9694 4.10026 5.84896 4.11328 5.73828 4.21094L4.69336 5.23633C4.58919 5.34701 4.57943 5.4707 4.66406 5.60742L5.95312 7.70703C5.84245 7.91536 5.72201 8.16602 5.5918 8.45898C5.46159 8.75195 5.36068 9.0612 5.28906 9.38672L2.88672 9.96289C2.73698 9.99544 2.66211 10.0866 2.66211 10.2363V11.7012C2.66211 11.8574 2.73698 11.9486 2.88672 11.9746L5.28906 12.541C5.36719 12.8535 5.4681 13.153 5.5918 13.4395C5.71549 13.7194 5.84245 13.9798 5.97266 14.2207L4.67383 16.3203C4.5957 16.457 4.60547 16.5742 4.70312 16.6719L5.74805 17.707C5.86523 17.8177 5.98242 17.834 6.09961 17.7559L8.20898 16.457C8.44987 16.6068 8.71354 16.7435 9 16.8672C9.29297 16.9844 9.59245 17.0788 9.89844 17.1504L10.4746 19.5527C10.5007 19.7025 10.5951 19.7773 10.7578 19.7773ZM11.5 14.6602C10.8229 14.6602 10.2012 14.4941 9.63477 14.1621C9.07487 13.8236 8.62565 13.3743 8.28711 12.8145C7.95508 12.2546 7.78906 11.6328 7.78906 10.9492C7.78906 10.2721 7.95508 9.65365 8.28711 9.09375C8.62565 8.53385 9.07487 8.08789 9.63477 7.75586C10.2012 7.42383 10.8229 7.25781 11.5 7.25781C12.1836 7.25781 12.8053 7.42383 13.3652 7.75586C13.9251 8.08789 14.3711 8.53385 14.7031 9.09375C15.0352 9.65365 15.2012 10.2721 15.2012 10.9492C15.2012 11.6263 15.0352 12.248 14.7031 12.8145C14.3711 13.3809 13.9251 13.8301 13.3652 14.1621C12.8053 14.4941 12.1836 14.6602 11.5 14.6602ZM11.5 12.9805C11.8646 12.9805 12.1999 12.8893 12.5059 12.707C12.8118 12.5182 13.0527 12.2708 13.2285 11.9648C13.4108 11.6589 13.502 11.3203 13.502 10.9492C13.502 10.5781 13.4108 10.2428 13.2285 9.94336C13.0527 9.63737 12.8118 9.39323 12.5059 9.21094C12.1999 9.02865 11.8646 8.9375 11.5 8.9375C11.1289 8.9375 10.7904 9.02865 10.4844 9.21094C10.1784 9.39323 9.93424 9.63737 9.75195 9.94336C9.56966 10.2428 9.47852 10.5781 9.47852 10.9492C9.47852 11.3268 9.56966 11.6686 9.75195 11.9746C9.93424 12.2806 10.1784 12.5247 10.4844 12.707C10.7904 12.8893 11.1289 12.9805 11.5 12.9805Z" fill="#FEFEFE"/>
</svg>
