<svg width="27" height="20" viewBox="0 0 27 20" fill="none" xmlns="http://www.w3.org/2000/svg">
<path d="M3.24609 19.2266C2.41927 19.2266 1.78776 19.0182 1.35156 18.6016C0.915365 18.1914 0.697266 17.5957 0.697266 16.8145V8.80664C0.697266 8.01888 0.915365 7.41992 1.35156 7.00977C1.78776 6.5931 2.41927 6.38477 3.24609 6.38477H5.6875C6.50781 6.38477 7.13607 6.5931 7.57227 7.00977C8.01497 7.41992 8.23633 8.01888 8.23633 8.80664V16.8145C8.23633 17.5957 8.01497 18.1914 7.57227 18.6016C7.13607 19.0182 6.50781 19.2266 5.6875 19.2266H3.24609ZM3.54883 17.4883H5.38477C5.74284 17.4883 5.99674 17.4134 6.14648 17.2637C6.30273 17.1139 6.38086 16.8665 6.38086 16.5215V9.09961C6.38086 8.74805 6.30273 8.4974 6.14648 8.34766C5.99674 8.19792 5.74284 8.12305 5.38477 8.12305H3.54883C3.19076 8.12305 2.93359 8.19792 2.77734 8.34766C2.6276 8.4974 2.55273 8.74805 2.55273 9.09961V16.5215C2.55273 16.8665 2.6276 17.1139 2.77734 17.2637C2.93359 17.4134 3.19076 17.4883 3.54883 17.4883ZM12.2695 19.2266C11.4427 19.2266 10.8112 19.0182 10.375 18.6016C9.9388 18.1914 9.7207 17.5957 9.7207 16.8145V5.95508C9.7207 5.16732 9.9388 4.5651 10.375 4.14844C10.8112 3.73177 11.4427 3.52344 12.2695 3.52344H14.7207C15.541 3.52344 16.1693 3.73177 16.6055 4.14844C17.0417 4.5651 17.2598 5.16732 17.2598 5.95508V16.8145C17.2598 17.5957 17.0417 18.1914 16.6055 18.6016C16.1693 19.0182 15.541 19.2266 14.7207 19.2266H12.2695ZM12.5723 17.4883H14.4082C14.7663 17.4883 15.0202 17.4134 15.1699 17.2637C15.3262 17.1139 15.4043 16.8665 15.4043 16.5215V6.24805C15.4043 5.89648 15.3262 5.64583 15.1699 5.49609C15.0202 5.34635 14.7695 5.27148 14.418 5.27148H12.5723C12.2142 5.27148 11.957 5.34635 11.8008 5.49609C11.651 5.64583 11.5762 5.89648 11.5762 6.24805V16.5215C11.5762 16.8665 11.651 17.1139 11.8008 17.2637C11.957 17.4134 12.2142 17.4883 12.5723 17.4883ZM21.2832 19.2266C20.4694 19.2266 19.8444 19.0182 19.4082 18.6016C18.972 18.1914 18.7539 17.5957 18.7539 16.8145V3.10352C18.7539 2.32227 18.972 1.72331 19.4082 1.30664C19.8444 0.889974 20.4694 0.681641 21.2832 0.681641H23.7441C24.5645 0.681641 25.1927 0.889974 25.6289 1.30664C26.0716 1.72331 26.293 2.32227 26.293 3.10352V16.8145C26.293 17.5957 26.0716 18.1914 25.6289 18.6016C25.1927 19.0182 24.5645 19.2266 23.7441 19.2266H21.2832ZM21.5957 17.4883H23.4316C23.7962 17.4883 24.0534 17.4134 24.2031 17.2637C24.3594 17.1139 24.4375 16.8665 24.4375 16.5215V3.39648C24.4375 3.04492 24.3594 2.79427 24.2031 2.64453C24.0534 2.49479 23.7962 2.41992 23.4316 2.41992H21.5957C21.2441 2.41992 20.9902 2.49479 20.834 2.64453C20.6842 2.79427 20.6094 3.04492 20.6094 3.39648V16.5215C20.6094 16.8665 20.6842 17.1139 20.834 17.2637C20.9902 17.4134 21.2441 17.4883 21.5957 17.4883Z" fill="#FEFEFE"/>
</svg>
