<svg width="20" height="20" viewBox="0 0 20 20" fill="none" xmlns="http://www.w3.org/2000/svg">
<path d="M0.654297 5.64258C0.654297 5.41471 0.729167 5.22591 0.878906 5.07617C1.03516 4.91992 1.22721 4.8418 1.45508 4.8418H3.33008V2.94727C3.33008 2.72591 3.4082 2.54036 3.56445 2.39062C3.7207 2.23438 3.90625 2.15625 4.12109 2.15625C4.34896 2.15625 4.53776 2.23438 4.6875 2.39062C4.84375 2.54036 4.92188 2.72591 4.92188 2.94727V4.8418H6.80664C7.03451 4.8418 7.22331 4.91992 7.37305 5.07617C7.5293 5.22591 7.60742 5.41471 7.60742 5.64258C7.60742 5.85742 7.5293 6.04297 7.37305 6.19922C7.22331 6.34896 7.03451 6.42383 6.80664 6.42383H4.92188V8.31836C4.92188 8.5332 4.84375 8.71875 4.6875 8.875C4.53776 9.03125 4.34896 9.10938 4.12109 9.10938C3.91276 9.10938 3.72721 9.03451 3.56445 8.88477C3.4082 8.72852 3.33008 8.53971 3.33008 8.31836V6.42383H1.45508C1.22721 6.42383 1.03516 6.34896 0.878906 6.19922C0.729167 6.04297 0.654297 5.85742 0.654297 5.64258ZM10.791 10.3398L5.20508 18.6309C5.06836 18.8327 4.9349 18.9759 4.80469 19.0605C4.68099 19.1452 4.52474 19.1875 4.33594 19.1875C4.09505 19.1875 3.88346 19.1159 3.70117 18.9727C3.52539 18.8294 3.4375 18.6341 3.4375 18.3867C3.4375 18.263 3.45703 18.1523 3.49609 18.0547C3.53516 17.957 3.59049 17.8561 3.66211 17.752L9.24805 9.51953L14.7754 1.29688C14.9251 1.07552 15.0651 0.925781 15.1953 0.847656C15.3255 0.763021 15.4915 0.720703 15.6934 0.720703C15.9277 0.720703 16.1263 0.798828 16.2891 0.955078C16.4583 1.10482 16.543 1.29036 16.543 1.51172C16.543 1.6224 16.5267 1.72656 16.4941 1.82422C16.4616 1.92188 16.4062 2.02604 16.3281 2.13672L10.791 10.3398ZM12.3828 14.9297C12.3828 14.7083 12.4577 14.5228 12.6074 14.373C12.7637 14.2168 12.9525 14.1387 13.1738 14.1387H18.5352C18.75 14.1387 18.9355 14.2168 19.0918 14.373C19.2546 14.5228 19.3359 14.7083 19.3359 14.9297C19.3359 15.151 19.2546 15.3398 19.0918 15.4961C18.9355 15.6523 18.75 15.7305 18.5352 15.7305H13.1738C12.9525 15.7305 12.7637 15.6523 12.6074 15.4961C12.4577 15.3398 12.3828 15.151 12.3828 14.9297Z" fill="#FEFEFE"/>
</svg>
